<svg xmlns="http://www.w3.org/2000/svg" width="426.7" height="426.7" version="1.0" viewBox="0 0 320 320">
    <path d="M80 2l-6 9-3 9c-1 1-4-2-4-4l-1-5c-2-3-2-3-4-2l-4 5-5 6-4 4c-1 1-6-1-9-5l-4-5c-2-2-2-2-3 0l-1 2v3l-6 25-4 11-5-3c-4-2-4-2-6-1l-2 5-2 8a111 111 0 00-5 19l-2 65c0 53 0 61 1 58l5-5c2-2 3-3 3-5 0-3 0-3 1-2l3 2 1 1c0 3 5 12 11 17 9 10 11 21 4 31-2 2-3 6-3 7 0 6-1 7-6 8l-5 1c-2 0-9-14-11-21l-3-6c-1-1-1 7-1 42v44h81l2-5c2-5 3-6 5-5 2 0 4 5 4 8 0 2 3 2 87 2 86 0 87 0 88-2v-18l1-15c-1-3 0-5 3-12 4-7 4-8 3-12l-1-4c-2 0-15 14-15 15l-17 11-6 5c-6 8-19 15-28 13h-7l-15 3c-11-1-32-9-33-13-2-8 1-13 9-15 5 0 30-8 34-10 4-3 8-7 10-14 2-5 2-5 1-8-2-2-2-2-6 0-2 0-4 2-6 4-5 4-10 5-25 4-17 0-20-1-26-6s-5-7 6-7c16-1 35-4 44-6 8-2 13-2 17-1 2 1 2 1 3-2 2-3 3-1-13-14-6-5-8-6-15-8l-15-1c-27 3-33 2-34-3 0-2 1-4 7-10 7-6 8-7 11-7 5 0 10-4 12-9s3-5 14-1l9 2c3-5 0-11-8-16-6-3-7-5-7-10 0-2-2-3-5 0l-7 3h-11c-14-4-18-11-12-24 2-5 4-12 5-26 0-9 2-12 7-14 3-2 3-2 6 0 3 1 4 3 7 9a396 396 0 0027 53c6 2 31 4 31 2l-12-2c-4 0-5 0-7-3l-3-3 4 1c7 1 29 0 35-2l12-1c8 1 9 0 15-5 5-5 13-18 13-22l2-2 2-2c1-2 1-2 1 0l6 17c3 7 2 28-3 41l-2 14-3 14c-2 4-3 7-3 13v7l4-1h4v7c0 7 1 10 5 11v4l-3 7-4 8-3 4-2 3c-2 3-2 3 1 4 5 1 16-10 16-15l3-10c3-7 4-11 2-11l2-8 1-12c0-7 1-10 3-17a150 150 0 008-59l-2-40-1-13-5-12-6-15c-1-4-6-10-7-9l-1 3-2 7-3 6-2 4h-5c-2-1-3-3-3-5 0-4-2-6-4-4s-9 0-12-2l-5-2-3-1 3-2h8l8 1c2 0 2 0 2-3a174 174 0 01-3-16l-3 5-4 5c-1 1-4 0-7-2l-8-3-6-3c-3-4-18-10-22-10-4 1-5 4-3 11l2 5c1 1 1 1-1 1s-4-1-7-4a110 110 0 01-15-21c-2-1-3-4-4-6l-3-7-1-4h-24v6c0 4 1 5 4 9 5 4 5 6 2 9l-2 4-6 9-4 5 1 8c2 6 2 7 1 10-2 4-2 5 0 6 5 2 5 9 0 9l-5-3-8-4c-4 0-6-1-9-4l-3-5c0-2-12-13-17-16l-3-1V32c1-9 1-11 3-14l2-5 1-4 1-5 1-4h-22C84 0 81 0 80 2zm164 57l6 4c2 3 3 3 3 14 0 6-1 10-2 11-1 2-12 1-18-1-4-1-5-2-8-7a51 51 0 00-6-11c-3-3-3-4-2-6 1-3 2-3 9-3l11-2c5-1 4-1 7 1zM120 79l4 4-2 3c-2 1-2 2-2 3 1 2-1 4-7 5-4 1-5 1-7-1-1-2-2-3-1-4 1-2 1-3-2-5l-7-6-3-3h16c7 0 8 0 11 4zm8 13c-1 2-1 2-1 0v-5l1 1v4zm103 1c2 2 2 2 0 4-3 3-4 6-3 7h11c9 1 10 1 13 3l6 9 4 6c3 0 3 2 1 7s-5 7-11 11a74 74 0 01-45 3c-14-2-29-21-28-35 1-2 1-3 5-3l11 1c18 3 19 3 22 1 1-1 3-3 3-5l2-6 1-4c0-2 3-3 5-2l3 3zm-114 13c0 5-1 7-5 9-3 1-4 1-5-1-2-2-2-6 0-9 2-4 3-4 7-4 2 0 3 1 3 5zm-2 18c4 1 3 13-3 20-3 4-13 9-25 11-10 1-14 1-22-2-7-2-9-3-11-7-2-2-2-2 0-4 7-7 13-10 22-11 10-1 16-3 20-5 5-2 16-4 19-2zm-10 38c1 2-3 4-11 7a104 104 0 01-23 8c-10 1-12 0-13-6l-2-6-1-1 9-1h20c10-2 19-2 21-1zm15 6c1 4 0 15-3 24-2 5-2 8-2 15 1 8 1 9-1 13-4 7-5 11-6 18 0 5 0 6 2 6 2 1 7 6 7 8 1 6 0 6-5 6s-6 0-10-4l-5-5-2-4-3-8-2-9-3-8-3-9c-1-2-2-5-1-11 0-8 0-9 3-13 4-6 9-10 15-14l9-5c7-4 9-3 10 1zm180 66l-2 2c-2 0-2 0 0-2l2-2v2z"/>
    <path d="M278 231c-1 1 0 5 1 5s2-2 2-5h-3zM318 285c-3 3-8 12-8 14 0 1 1 1 6-1l4-2v-6c0-6 0-7-2-5z"/>
</svg>
